# Blender 3.6.4
# www.blender.org
mtllib masa.mtl
o birou
v -1.052029 -0.016085 -7.084495
v -1.052029 2.562914 -7.084495
v -1.052029 -0.016085 -9.188554
v -1.052029 2.562914 -9.188554
v -0.774092 -0.016085 -7.084495
v -0.774092 2.562914 -7.084495
v -0.774092 -0.016085 -9.188554
v -0.774092 2.562914 -9.188554
v -1.052029 2.883281 -7.084495
v -1.052029 2.883281 -9.188554
v -0.774092 2.883281 -9.188554
v -0.774092 2.883281 -7.084495
v -0.774092 2.562914 -6.583155
v -1.052029 2.562914 -6.583155
v -0.774092 2.883281 -6.583155
v -1.052029 2.883281 -6.583155
v 4.865964 2.562914 -9.188554
v 4.865964 2.562914 -7.084495
v 4.865964 2.883281 -9.188554
v 4.865964 2.883281 -7.084495
v 4.865964 2.883281 -6.583155
v 4.865964 2.562914 -6.583155
v 5.105745 2.562914 -9.188554
v 5.105745 2.562914 -7.084495
v 5.105745 2.883281 -9.188554
v 5.105745 2.883281 -7.084495
v 5.105745 2.883281 -6.583155
v 5.105745 2.562914 -6.583155
v 4.865964 0.024909 -9.188554
v 4.865964 0.024909 -7.084495
v 5.105745 0.024909 -7.084495
v 5.105745 0.024909 -9.188554
v -1.052029 1.961275 -7.084495
v -1.052029 1.961275 -9.188554
v -0.774092 1.961275 -9.188554
v -0.774092 1.961275 -7.084495
v -1.052029 0.972595 -9.188554
v -0.774092 0.972595 -9.188554
v -0.774092 0.972595 -7.084495
v -1.052029 0.972595 -7.084495
v -1.052029 2.131072 -7.084495
v -1.052029 2.131072 -9.188554
v -0.774092 2.131072 -9.188554
v -0.774092 2.131072 -7.084495
v 4.865964 2.159651 -7.084495
v 5.105745 2.159651 -7.084495
v 5.105745 2.159651 -9.188554
v 4.865964 2.159651 -9.188554
v 4.865964 1.921844 -7.084495
v 4.865964 1.921844 -9.188554
v 5.105745 1.921844 -7.084495
v 5.105745 1.921844 -9.188554
v 3.340123 2.562914 -9.188554
v 3.340123 2.562914 -7.084495
v 3.340123 2.159651 -7.084495
v 3.340123 2.159651 -9.188554
v 3.340123 1.921844 -7.084495
v 3.340123 1.921844 -9.188554
v 3.261457 2.131072 -9.188554
v 3.261457 1.961275 -9.188554
v 3.261457 2.131072 -7.084495
v 3.261457 1.961275 -7.084495
v -0.562304 2.574985 -6.471000
v -0.819297 2.574985 -6.471000
v -0.562304 2.871210 -6.471000
v -0.819297 2.871210 -6.471000
v 4.652739 2.871210 -6.471000
v 4.652739 2.574985 -6.471000
v 4.874451 2.871210 -6.471000
v 4.874451 2.574985 -6.471000
v 0.237476 2.620568 -6.314888
v 0.059575 2.620568 -6.314888
v 0.237476 2.825627 -6.314888
v 0.059575 2.825627 -6.314888
v 3.847530 2.825627 -6.314888
v 3.847530 2.620568 -6.314888
v 4.001008 2.825627 -6.314888
v 4.001008 2.620568 -6.314888
v 3.338299 2.131072 -9.188554
v 3.338299 1.961275 -9.188554
v 3.338299 2.131072 -7.084495
v 3.338299 1.961275 -7.084495
v 4.066612 2.259199 -7.007205
v 4.066612 2.357604 -7.007205
v 4.066612 2.259199 -7.105610
v 4.066612 2.357604 -7.105610
v 4.165017 2.259199 -7.007205
v 4.165017 2.357604 -7.007205
v 4.165017 2.259199 -7.105610
v 4.165017 2.357604 -7.105610
v 4.066612 2.259199 -6.975776
v 4.066612 2.357604 -6.975776
v 4.165017 2.357604 -6.975776
v 4.165017 2.259199 -6.975776
v 4.066612 2.191974 -7.007205
v 4.165017 2.191974 -7.007205
v 4.066612 2.191974 -6.975776
v 4.165017 2.191974 -6.975776
vn -1.0000 -0.0000 -0.0000
vn -0.0000 -0.0000 -1.0000
vn 1.0000 -0.0000 -0.0000
vn -0.0000 -0.0000 1.0000
vn -0.0000 -1.0000 -0.0000
vn -0.0000 1.0000 -0.0000
vn -0.0000 -0.9943 0.1070
vn 0.4363 -0.0000 0.8998
vn -0.0000 -0.9599 0.2803
vn -0.0000 0.9599 0.2803
vn -0.1749 -0.0000 0.9846
vn -0.4341 -0.0000 0.9009
vn -0.0000 0.9943 0.1070
vn 0.1759 -0.0000 0.9844
vt 0.531626 0.814112
vt 0.517020 0.814112
vt 0.517020 0.614984
vt 0.531626 0.614984
vt 0.228527 0.782255
vt 0.213921 0.782255
vt 0.213921 0.755951
vt 0.228527 0.755951
vt 0.737216 0.814112
vt 0.722610 0.814112
vt 0.722610 0.614984
vt 0.737216 0.614984
vt 0.520791 0.225788
vt 0.506185 0.225788
vt 0.506185 0.199484
vt 0.520791 0.199484
vt 0.502520 0.923232
vt 0.489273 0.923232
vt 0.489273 0.782255
vt 0.502520 0.782255
vt 0.250630 0.561504
vt 0.241879 0.462222
vt 0.617784 0.396427
vt 0.626535 0.495709
vt 0.232106 0.564746
vt 0.223355 0.465465
vt 0.506185 0.814112
vt 0.506185 0.614984
vt 0.310336 0.225788
vt 0.327252 0.225788
vt 0.327252 0.759562
vt 0.310336 0.759562
vt 0.203085 0.782255
vt 0.203085 0.755951
vt 0.310336 0.199484
vt 0.306523 0.245832
vt 0.306523 0.221510
vt 0.221269 0.441808
vt 0.239794 0.438566
vt 0.327252 0.199484
vt 0.517020 0.861558
vt 0.506185 0.861558
vt 0.629212 0.341975
vt 0.630547 0.357128
vt 0.615080 0.359256
vt 0.613845 0.345245
vt 0.327252 0.782255
vt 0.310336 0.782255
vt 0.398249 0.225788
vt 0.398249 0.759562
vt 0.615698 0.372771
vt 0.306523 0.739382
vt 0.203085 0.222177
vt 0.213921 0.222177
vt 0.615085 0.662431
vt 0.615085 0.861558
vt 0.604249 0.861558
vt 0.604249 0.662431
vt 0.604249 0.614984
vt 0.615085 0.614984
vt 0.203085 0.199484
vt 0.213921 0.199484
vt 0.385089 0.881484
vt 0.384995 0.897587
vt 0.294588 0.896537
vt 0.294682 0.880433
vt 0.631680 0.369974
vt 0.633765 0.393630
vt 0.642516 0.492912
vt 0.746835 0.398612
vt 0.746835 0.539589
vt 0.735407 0.539589
vt 0.735407 0.398612
vt 0.636768 0.861558
vt 0.636768 0.662431
vt 0.700927 0.662431
vt 0.700927 0.861558
vt 0.269965 0.981382
vt 0.269965 0.782255
vt 0.334124 0.782255
vt 0.334124 0.981382
vt 0.235603 0.222177
vt 0.235603 0.199484
vt 0.299763 0.199484
vt 0.299763 0.222177
vt 0.559974 0.225788
vt 0.526534 0.225788
vt 0.526534 0.199484
vt 0.559974 0.199484
vt 0.236525 0.981382
vt 0.203085 0.981382
vt 0.236525 0.782255
vt 0.267710 0.782255
vt 0.234270 0.782255
vt 0.234270 0.755951
vt 0.267710 0.755951
vt 0.570809 0.814112
vt 0.537369 0.814112
vt 0.537369 0.614984
vt 0.570809 0.614984
vt 0.604249 0.814112
vt 0.301150 0.782255
vt 0.301150 0.755951
vt 0.593413 0.225788
vt 0.593413 0.199484
vt 0.228527 0.374027
vt 0.234270 0.374027
vt 0.227560 0.199484
vt 0.227560 0.222177
vt 0.345553 0.809338
vt 0.345553 0.782255
vt 0.418276 0.782255
vt 0.418276 0.809338
vt 0.628724 0.662431
vt 0.628724 0.861558
vt 0.334124 0.809338
vt 0.489273 0.926660
vt 0.418276 0.926660
vt 0.418276 0.782255
vt 0.489273 0.782255
vt 0.345553 0.825310
vt 0.334124 0.825310
vt 0.700927 0.814112
vt 0.700927 0.614984
vt 0.714567 0.614984
vt 0.714567 0.814112
vt 0.235603 0.366582
vt 0.227560 0.366582
vt 0.213921 0.366582
vt 0.771924 0.958517
vt 0.700927 0.958517
vt 0.771924 0.814112
vt 0.418276 0.825310
vt 0.593413 0.581408
vt 0.664410 0.581408
vt 0.664410 0.588680
vt 0.593413 0.588680
vt 0.593413 0.199484
vt 0.664410 0.199484
vt 0.076562 0.896697
vt 0.076562 0.876890
vt 0.739929 0.876890
vt 0.739929 0.896697
vt 0.664411 0.199484
vt 0.735407 0.199484
vt 0.735407 0.581408
vt 0.664411 0.581408
vt 0.306523 0.760365
vt 0.301150 0.677703
vt 0.301150 0.663178
vt 0.253439 0.430764
vt 0.236311 0.433762
vt 0.294225 0.415995
vt 0.306082 0.413920
vt 0.235597 0.425677
vt 0.234362 0.411666
vt 0.293126 0.403570
vt 0.293981 0.413269
vt 0.220137 0.428963
vt 0.218802 0.413810
vt 0.601017 0.369927
vt 0.615794 0.367341
vt 0.304983 0.401494
vt 0.305838 0.411193
vt 0.546445 0.369080
vt 0.545590 0.359381
vt 0.555819 0.357590
vt 0.556674 0.367289
vt 0.546688 0.371806
vt 0.301150 0.321523
vt 0.301150 0.304686
vt 0.556918 0.370016
vt 0.276052 0.687302
vt 0.623630 0.626466
vt 0.570626 0.643373
vt 0.330019 0.685487
vt 0.741150 0.398612
vt 0.741150 0.199484
vt 0.228527 0.366755
vt 0.234270 0.366755
vt 0.735407 0.588680
vt 0.664411 0.588680
vt 0.520791 0.607712
vt 0.526534 0.607712
vt 0.526534 0.614984
vt 0.520791 0.614984
vt 0.581448 0.075356
vt 0.570462 0.075356
vt 0.570462 0.044618
vt 0.581448 0.044618
vt 0.606725 0.610281
vt 0.603396 0.610281
vt 0.603396 0.600968
vt 0.606725 0.600968
vt 0.581448 0.125730
vt 0.570462 0.125730
vt 0.570462 0.094991
vt 0.581448 0.094991
vt 0.599912 0.115912
vt 0.599912 0.085173
vt 0.603412 0.085173
vt 0.603412 0.115912
vt 0.615392 0.044617
vt 0.615392 0.075356
vt 0.604433 0.075356
vt 0.604433 0.044617
vt 0.588952 0.115912
vt 0.588952 0.085173
vt 0.588952 0.066431
vt 0.588952 0.044618
vt 0.604433 0.044618
vt 0.604433 0.066431
vt 0.570462 0.085173
vt 0.581448 0.085173
vt 0.588952 0.085173
vt 0.588952 0.094991
vt 0.618892 0.044617
vt 0.618892 0.075356
vt 0.604433 0.081333
vt 0.588952 0.081333
vt 0.614398 0.115912
vt 0.614398 0.085174
vt 0.621903 0.085174
vt 0.621903 0.115912
vt 0.588952 0.075356
s 0
usemtl Material.002
f 41/1/1 2/2/1 4/3/1 42/4/1
f 42/5/2 4/6/2 8/7/2 43/8/2
f 43/9/3 8/10/3 6/11/3 44/12/3
f 44/13/4 6/14/4 2/15/4 41/16/4
f 3/17/5 7/18/5 5/19/5 1/20/5
f 11/21/6 12/22/6 20/23/6 19/24/6
f 11/21/6 10/25/6 9/26/6 12/22/6
f 4/3/1 2/2/1 9/27/1 10/28/1
f 13/29/5 6/30/5 18/31/5 22/32/5
f 8/7/2 4/6/2 10/33/2 11/34/2
f 14/35/7 13/29/7 63/36/7 64/37/7
f 12/22/6 9/26/6 16/38/6 15/39/6
f 2/40/5 6/30/5 13/29/5 14/35/5
f 9/27/1 2/2/1 14/41/1 16/42/1
f 28/43/8 27/44/8 69/45/8 70/46/8
f 22/32/5 18/31/5 24/47/5 28/48/5
f 6/30/5 8/49/5 17/50/5 18/31/5
f 12/22/6 15/39/6 21/51/6 20/23/6
f 13/29/7 22/32/7 68/52/7 63/36/7
f 8/7/2 11/34/2 19/53/2 17/54/2
f 24/55/3 23/56/3 25/57/3 26/58/3
f 24/55/3 26/58/3 27/59/3 28/60/3
f 17/54/2 19/53/2 25/61/2 23/62/2
f 51/63/4 49/64/4 30/65/4 31/66/4
f 20/23/6 21/51/6 27/67/6 26/68/6
f 19/24/6 20/23/6 26/68/6 25/69/6
f 30/70/5 29/71/5 32/72/5 31/73/5
f 52/74/3 51/75/3 31/76/3 32/77/3
f 49/78/1 50/79/1 29/80/1 30/81/1
f 50/82/2 52/83/2 32/84/2 29/85/2
f 39/86/4 36/87/4 33/88/4 40/89/4
f 38/90/3 35/91/3 36/33/3 39/92/3
f 37/93/2 34/94/2 35/95/2 38/96/2
f 40/97/1 33/98/1 34/99/1 37/100/1
f 1/101/1 40/97/1 37/100/1 3/59/1
f 3/102/2 37/93/2 38/96/2 7/103/2
f 7/78/3 38/90/3 39/92/3 5/79/3
f 5/104/4 39/86/4 40/89/4 1/105/4
f 36/87/4 44/13/4 41/16/4 33/88/4
f 35/95/2 43/8/2 59/106/2 60/107/2
f 34/94/2 42/5/2 43/8/2 35/95/2
f 33/98/1 41/1/1 42/4/1 34/99/1
f 17/54/2 23/62/2 47/108/2 48/109/2
f 45/110/4 18/111/4 54/112/4 55/113/4
f 23/56/3 24/55/3 46/114/3 47/115/3
f 24/80/4 18/111/4 45/110/4 46/116/4
f 48/109/2 47/108/2 52/83/2 50/82/2
f 50/117/5 49/118/5 57/119/5 58/120/5
f 47/115/3 46/114/3 51/75/3 52/74/3
f 46/116/4 45/110/4 49/121/4 51/122/4
f 54/123/1 53/124/1 56/125/1 55/126/1
f 55/126/1 56/125/1 58/11/1 57/10/1
f 48/109/2 50/82/2 58/127/2 56/128/2
f 17/54/2 48/109/2 56/128/2 53/129/2
f 18/130/6 17/131/6 53/123/6 54/132/6
f 49/121/4 45/110/4 55/113/4 57/133/4
f 62/134/5 60/135/5 80/136/5 82/137/5
f 36/138/5 35/139/5 60/135/5 62/134/5
f 44/140/4 36/141/4 62/142/4 61/143/4
f 43/144/6 44/145/6 61/146/6 59/147/6
f 68/52/9 70/148/9 78/149/9 76/150/9
f 65/151/10 66/152/10 74/153/10 73/154/10
f 66/155/11 64/156/11 72/157/11 74/158/11
f 22/32/7 28/48/7 70/148/7 68/52/7
f 16/159/12 14/160/12 64/156/12 66/155/12
f 15/39/13 16/38/13 66/152/13 65/151/13
f 21/51/13 15/39/13 65/151/13 67/161/13
f 27/67/13 21/51/13 67/161/13 69/162/13
f 72/157/4 71/163/4 73/164/4 74/158/4
f 75/165/4 76/166/4 78/167/4 77/168/4
f 73/164/4 71/163/4 76/166/4 75/165/4
f 67/161/10 65/151/10 73/154/10 75/169/10
f 64/37/9 63/36/9 71/170/9 72/171/9
f 69/162/10 67/161/10 75/169/10 77/172/10
f 70/46/14 69/45/14 77/168/14 78/167/14
f 63/173/9 68/174/9 76/175/9 71/176/9
f 80/177/3 79/73/3 81/145/3 82/178/3
f 60/107/2 59/106/2 79/179/2 80/180/2
f 59/147/6 61/146/6 81/181/6 79/182/6
f 61/183/4 62/184/4 82/185/4 81/186/4
f 83/187/1 84/188/1 86/189/1 85/190/1
f 85/191/2 86/192/2 90/193/2 89/194/2
f 89/195/3 90/196/3 88/197/3 87/198/3
f 88/199/6 84/200/6 92/201/6 93/202/6
f 85/203/5 89/204/5 87/205/5 83/206/5
f 90/207/6 86/208/6 84/200/6 88/199/6
f 94/209/4 93/210/4 92/211/4 91/212/4
f 87/198/3 88/197/3 93/213/3 94/214/3
f 84/188/1 83/187/1 91/214/1 92/213/1
f 87/198/3 94/214/3 98/215/3 96/216/3
f 95/217/5 96/218/5 98/204/5 97/203/5
f 94/209/4 91/212/4 97/219/4 98/220/4
f 83/221/2 87/222/2 96/223/2 95/224/2
f 91/214/1 83/187/1 95/225/1 97/215/1
